<svg xmlns="http://www.w3.org/2000/svg" width="43.914897761554016" height="41.893616114660055" style=""><rect id="backgroundrect" width="100%" height="100%" x="0" y="0" fill="none" stroke="none" class="" style=""/><g class="currentLayer" style=""><title>Layer 1</title><circle fill="#FFF" cx="20" cy="20.100000381469727" r="19.799999237060547" id="svg_1" class="selected"/><path fill="#DA344E" d="M3.9 28.2c-.7 0-1.2.5-1.2 1.2 0 .6.5 1.2 1.2 1.2s1.2-.5 1.2-1.2c0-.6-.5-1.2-1.2-1.2z" id="svg_2" class=""/><path fill="#DA344E" d="M20.1.2C9.1.2.2 9.1.2 20.1c0 2.4.4 4.8 1.3 6.9 1.7-1.6 2.7-.4 4.4-1.9 2-1.7 5.3-5.2 7.2-7.9-.4-.4-.8-.9-1.3-1.3-1.4-1.4-1.4-3.6 0-5.1 1.4-1.4 3.7-1.4 5.1 0 2.4 2.4 4.2 3.6 8.6 3.9 4.2.3 6.1 2 7.3 3.1l.5.5c.2.2.2.5 0 .7l-5.7 5.7-2.5-2.5 2-2c.2-.2.2-.6-.2-.7-.3-.1-8.5-2.8-8.7-2.8-.2-.1-.4-.1-.5.1-.1.1-.1.2-.1.5.1.2 2.7 8.4 2.8 8.7.1.3.5.4.7.2l2-2 2.5 2.5-5.7 5.7c-.2.2-.5.2-.7 0l-.5-.5c-1.2-1.2-2.9-3.1-3.1-7.3-.1-1.4-.3-2.5-.5-3.5-3.7 3.3-7.8 7.5-8.3 9.1-.5 1.7-.5 4.4 2 6.3 3.2 2.2 7 3.4 11.1 3.4 11 0 19.8-8.9 19.8-19.8C39.9 9.1 31 .2 20.1.2z" id="svg_3" class="selected" transform="rotate(2.28962 19.9517 20.05)"/><path fill="#3C3C3B" d="M49.5 29.9V10.1h3.1v19.8h-3.1zm5.9-17.8c0-1.1.9-1.9 1.9-1.9 1.1 0 1.9.9 1.9 1.9 0 1.1-.9 1.9-1.9 1.9-1 0-1.9-.9-1.9-1.9zm.3 17.8V15.6h3.1v14.3h-3.1zm6 3.7 1.5-2.3c1.2 1.3 2.7 1.8 4.6 1.8 2.1 0 4.2-.9 4.2-4v-1.6C70.8 29 69.2 30 67.3 30c-3.7 0-6.4-2.6-6.4-7.4 0-4.7 2.6-7.4 6.4-7.4 1.8 0 3.4.8 4.6 2.3v-2H75v13.6c0 5.2-3.9 6.6-7.4 6.6-2.4.1-4.2-.5-5.9-2.1zm10.2-8.3v-5.4c-.7-1-2.2-1.9-3.7-1.9-2.5 0-4.1 1.8-4.1 4.6s1.6 4.6 4.1 4.6c1.5 0 3-.9 3.7-1.9zm16 4.6v-9c0-2.3-1.1-2.9-2.9-2.9-1.6 0-3 1-3.7 1.9v10h-3.1V10.1h3.1v7.4c1-1.1 2.8-2.3 5-2.3 3.1 0 4.6 1.6 4.6 4.5v10.2h-3zm7.6-3.3v-8.3h-2.4v-2.7h2.4v-3.9h3.1v3.9h2.9v2.7h-2.9v7.5c0 1 .5 1.7 1.4 1.7.6 0 1.1-.3 1.4-.5l.7 2.4c-.6.5-1.5.9-2.9.9-2.5 0-3.7-1.3-3.7-3.7zm7.7 1.4 1.4-2.2c1 1 3 2 4.8 2 1.9 0 2.9-.8 2.9-1.9 0-2.8-8.7-.8-8.7-6.3 0-2.3 2-4.3 5.6-4.3 2.4 0 4.3.9 5.6 2l-1.3 2.2c-.9-.9-2.4-1.7-4.2-1.7-1.6 0-2.6.8-2.6 1.8 0 2.5 8.7.6 8.7 6.3 0 2.6-2.1 4.5-6 4.5-2.5-.1-4.7-.9-6.2-2.4zM122 17.2c0-.8.6-1.4 1.4-1.4.8 0 1.4.6 1.4 1.4 0 .8-.6 1.4-1.4 1.4-.8-.1-1.4-.7-1.4-1.4zm.2 12.7V19.8h2.2V30h-2.2zm3.9-5.1c0-2.9 2.1-5.3 5.2-5.3 3 0 5 2.3 5 5.5v.5h-7.8c.2 1.5 1.3 2.8 3.2 2.8 1 0 2.2-.4 2.9-1.1l1 1.5c-1 1-2.5 1.5-4.1 1.5-3.2 0-5.4-2.1-5.4-5.4zm5.1-3.5c-1.9 0-2.8 1.5-2.8 2.7h5.7c-.1-1.2-.9-2.7-2.9-2.7z" id="svg_4" class=""/><path fill="#DA344E" d="M116.9 28.7c0-.8.7-1.4 1.5-1.4s1.5.7 1.5 1.4c0 .8-.7 1.5-1.5 1.5s-1.5-.7-1.5-1.5z" id="svg_5" class=""/></g></svg>